<?xml version="1.0" encoding="utf-8"?>
<!-- Generator: Adobe Illustrator 25.0.0, SVG Export Plug-In . SVG Version: 6.00 Build 0)  -->
<svg version="1.1" id="Layer_1" xmlns="http://www.w3.org/2000/svg" xmlns:xlink="http://www.w3.org/1999/xlink" x="0px" y="0px"
	 viewBox="0 0 296 299" style="enable-background:new 0 0 296 299;" xml:space="preserve">
<style type="text/css">
	.st0{fill:#E61325;}
</style>
<g>
	<g>
		<path class="st0" d="M293.58,147.5c0,41-0.33,82,0.16,122.99c0.19,16.15-10.14,21.87-21.31,21.73
			c-6.16-0.08-12.33,0.04-18.47-0.33c-9.8-0.59-16.59-8.87-16.55-19.5c0.11-26,0.07-51.99,0.28-77.99c0.03-3.56-0.96-5.18-4.48-6.3
			c-68.02-21.63-136-43.4-203.98-65.15c-3.17-1.01-6.32-2.09-9.42-3.31c-8.28-3.27-13.33-10.62-13.06-18.8
			c0.26-7.98,5.11-13.72,14.13-16.64C58.88,71.9,96.87,59.63,134.87,47.37c44.49-14.36,88.96-28.77,133.5-42.98
			c10.41-3.32,18.91-0.51,22.82,7.61c1.71,3.56,2.28,7.98,2.29,12.01C293.64,65.17,293.58,106.34,293.58,147.5z"/>
	</g>
</g>
</svg>
