<?xml version="1.0" encoding="utf-8"?>
<!-- Generator: Adobe Illustrator 25.0.0, SVG Export Plug-In . SVG Version: 6.00 Build 0)  -->
<svg version="1.1" id="Layer_1" xmlns="http://www.w3.org/2000/svg" xmlns:xlink="http://www.w3.org/1999/xlink" x="0px" y="0px"
	 viewBox="0 0 293 302" style="enable-background:new 0 0 293 302;" xml:space="preserve">
<style type="text/css">
	.st0{fill:#F7A473;}
	.st1{fill:#E71A2C;}
	.st2{fill:#E71B2D;}
	.st3{fill:#E71A2D;}
</style>
<g>
	<g>
		<path d="M82.9,46.97c8.89-8.73,18.48-7.62,34.26-0.55c12.34,5.54,22.1,14.73,30.49,25.21c2.82,3.52,5.24,4.53,9.92,3.7
			c51.47-9.11,101.66,21.36,118.77,70.74c16.96,48.97-4.2,107.05-54.83,131.81c-46.4,22.69-105.57,6.82-133.8-36.42
			c-23.35-35.77-24.9-73.17-5.99-111.18c5.7-11.45,14.28-24.92,35.4-39.12c-5.31-6.63-12.01-11.31-19.45-15.08
			c-2.07-1.05-4.21-1.98-6.35-2.89c-10.68-4.51-13.94-11.01-11.08-22.15C81.14,49.69,82.02,48.33,82.9,46.97z"/>
		<path class="st0" d="M82.9,46.97c-0.88,1.36-1.76,2.72-2.65,4.08c-9.57-3.26-19.18-6.39-28.66-9.87
			c-1.83-0.67-3.18-2.65-4.74-4.03c2.19-0.24,4.62-1.22,6.52-0.6C63.29,39.8,73.07,43.46,82.9,46.97z"/>
		<path class="st1" d="M38.37,22.39c1.26-3.52,2.51-7.79,4.4-11.76c0.58-1.21,3.22-2.46,4.43-2.09c1.53,0.47,3.24,2.39,3.67,4
			c1.15,4.29-3.8,14.83-7.95,16.21C37.42,30.59,39.8,25.54,38.37,22.39z"/>
		<path class="st2" d="M28.03,36.37c-3.79,6.62-10.06,7.66-16.44,8.01c-1.39,0.08-3.32-1.47-4.18-2.8c-0.55-0.84,0-3,0.79-3.99
			C12.57,32.07,22.39,31.43,28.03,36.37z"/>
		<path class="st3" d="M38.44,48.82c0,2,0.43,4.12-0.12,5.95c-0.49,1.63-1.91,3.88-3.21,4.1c-1.32,0.22-4.25-1.68-4.29-2.74
			c-0.24-5.76,0.06-11.55,0.55-17.3c0.06-0.73,2.43-1.91,3.55-1.73c1.13,0.18,2.69,1.66,2.91,2.79
			C38.37,42.8,38.28,45.83,38.44,48.82z"/>
		<path class="st2" d="M22.16,10.75c2.02,1.5,3.22,2.09,4,3.03c2.23,2.68,4.47,5.39,6.34,8.32c0.75,1.17,1.22,3.81,0.62,4.29
			c-1.23,0.98-4.25,1.83-4.8,1.2c-3.19-3.61-6.07-7.54-8.54-11.68C19.3,15.11,21.1,12.94,22.16,10.75z"/>
	</g>
</g>
</svg>
